<svg id="Agrupar_1" data-name="Agrupar 1" xmlns="http://www.w3.org/2000/svg" width="182" height="310" viewBox="0 0 182 310">
  <defs>
    <style>
      .cls-1, .cls-2 {
        fill-rule: evenodd;
      }

      .cls-2 {
        stroke: #000;
        stroke-width: 1px;
      }
    </style>
  </defs>
  <path id="Forma_1" data-name="Forma 1" class="cls-1" d="M76.365,21.685c11.61-.834,10.9-17.037-1.558-15.585-8.564,1.508-41.7,5.262-42.079,32.728,6.694,52.858,80.884,2.963,81.04,59.222,0,30.567-43.484,38.514-82.6,32.728-15.335.867-7.667,14.388-1.558,14.026,91.749,7.6,99.487-32.783,99.741-46.754-9.824-73.057-77.458-25.589-81.04-60.78C48.157,29.484,53.076,21.9,76.365,21.685Z"/>
  <path id="Forma_2" data-name="Forma 2" class="cls-1" d="M64.188,165.179c1.7,19.45,23.317,17.682,25.977,17.918s39.079-2.514,71.75-1c8.062-.676,6.049-13.87-1.144-14.066-41.017-3.925-58.775,2.592-71.75,1-9.665-1.162-11.487-2.764-12.186-9.715,1.474-58.06.245-95.873-.265-96.674-5.453-4.782-19.014,1.687-15.578-.46S62.1,135.408,64.188,165.179Z"/>
  <path id="Forma_3" data-name="Forma 3" class="cls-2" d="M157.405,190.83c-107.6,6.678-143.309,1.707-146.5,3.844C5.323,197.761.888,208.66,6.234,218.051c33.159,49.535,70.112,15.908,85.715,3.117,32.3,28.721,67.958-.966,71.689-9.351,0.846-13.193-7.621-7.315-9.35-6.234-2.569,1.328-6.307.626-15.585,7.792s-22.583,9.811-46.754-7.792c-41.207,35.827-64,28.142-74.806,1.559,31.6,1.532,59.269-4.52,116.885-1.559,12.029-.192,17.016.916,21.818-1.558C167.009,200.351,163.933,190.83,157.405,190.83Z"/>
  <path id="Forma_4" data-name="Forma 4" class="cls-1" d="M24.935,257.012c-23.7,35.73,26.994,66.155,51.119,25.835C79.467,272.54,82.285,266.5,84,265c33.847-27.828,51.151-3.167,62,17,2.446,10.857,17.178,8.049,11.405-7.845C125.961,214.085,76.888,248.93,70,266c-15.591,42.973-45.8,14.213-34.155-1.195C44.711,256.548,36.887,242.793,24.935,257.012Z"/>
  <path id="Forma_5" data-name="Forma 5" class="cls-1" d="M81.04,246.1c0.7-11.128,13.711-13.106,14.026,0-0.628,6.451-1.532,28.892,0,51.429-1.171,11.656-13.323,10.5-14.026,3.117C80.689,292.1,81.993,264.306,81.04,246.1Z"/>
  <path id="Forma_6" data-name="Forma 6" class="cls-1" d="M56.1,101.166c15.579-16.081,12.214,4.478,4.675,14.026S22.1,165.951,20.26,166.622C8.031,176.673,5.5,161.961,9.351,157.271,13.874,154.255,50.912,105.187,56.1,101.166Z"/>
  <path id="Forma_7" data-name="Forma 7" class="cls-1" d="M93.508,38.828c28.867,4.357,29.7,22.046,38.961,31.169,8.443,6.536,15.675-.636,10.909-9.351-8.85-13.208-25.5-29.868-35.844-32.728C84.658,19.2,85.61,38.147,93.508,38.828Z"/>
  <path id="Forma_8" data-name="Forma 8" class="cls-1" d="M20.26,9.217c-2.812,4.176,5.473,14.225,12.468,6.234,2.689-4.636-.283-7.879-3.117-9.351C26.65,4.565,22.247,4.406,20.26,9.217Z"/>
  <path id="Forma_9" data-name="Forma 9" class="cls-1" d="M149.612,112.075c12.733-5.159,29.589,7.747,28.053,20.26-0.11,10.757-6.407,23.136-26.494,21.819-12.843-3.293-18.614-9.811-20.26-18.7-0.33-16.245,4.543-18.921,10.909-18.7s7.024,3.95,7.792,7.792c-2.854,1.976-6.783,6.782,1.559,14.026,5.049,3.293,10.821.923,12.467-4.675-0.987-4.61-2.5-6.366-6.233-7.792-6.367,1.1-7.793-6.234-7.793-6.234S144.453,115.259,149.612,112.075Z"/>
  <path id="Forma_10" data-name="Forma 10" class="cls-2" d="M138.7,118.309c0.832-5.216,5.635-6.658,14.026-7.792,3.78,0.68,10.909,14.026,10.909,14.026s-8.34,2.263-10.909,1.559c-3.655-1.546-6.234,1.558-6.234,1.558S137.72,119.519,138.7,118.309Z"/>
  <path id="Forma_11" data-name="Forma 11" class="cls-2" d="M146.5,202.466a1.265,1.265,0,0,1,.484.531c5.043,1.206,2.633,7.261,2.633,7.261S159.259,216.933,162,212c4.575-.779,6.123-15.938,0-18C160.252,192.072,145.455,202.067,146.5,202.466Z"/>
  <path id="Forma_12" data-name="Forma 12" class="cls-2" d="M230,194"/>
  <path id="Forma_13" data-name="Forma 13" class="cls-2" d="M42,206c13.522-6.944,98.533-2.731,101-2S81.927,208.375,42,206Z"/>
</svg>
